<?xml version="1.0" encoding="UTF-8"?>
<svg version="1.1" viewBox="0 0 2000 2000" width="1280" height="1280" xmlns="http://www.w3.org/2000/svg">
<path transform="translate(456,80)" d="m0 0h1402l20 2 17 4 20 8 17 9 13 10 10 9 12 13 12 17 11 23 6 19 4 17v198l-9 32-7 16-6 11-10 14-11 12-11 11-15 10-22 12-15 5-17 4-12 2h-1409l1 123 7 8 30 30 7 8 19 19 7 8 17 17 7 8 16 16 7 8 30 30 7 8 18 18 7 8 16 16 7 8 12 12 7 8 26 26 7 8 19 19 7 8 17 17 7 8 26 26 7 8 15 15h776v-136l-1-35-1-3-3-1-101-1h-532l-138 1-8 7-27 27-1 2h-4l-9-11-16-16-7-8-24-24-7-8-20-20-7-8-4-4 1-4 8-7 33-33 13-10 16-9 16-7 18-5 24-3h783l18 2 19 5 20 8 16 9 13 10 8 7 7 8 10 12 9 14 8 16 6 18 4 20 1 8v187l-3 19-6 20-7 15-6 11-8 11-13 15-12 11-15 10-16 9-19 7-24 5-15 1h-779l-20-2-20-6-21-10-12-8-14-11-40-40-7-8-27-27v-2h-2l-7-8-8-8-4-1-2 4-5 4-6 7-6 5-6 7-8 7-131 131-1 69-20 1h-119l-1-1v-81l3-18 6-20 7-16 10-16 9-11 11-12 42-42h2l2-4h2l2-4h2v-2l8-7 102-102-1-4-21-21-7-8-13-13-7-8-31-31-7-8-29-29-7-8-24-24-7-8-12-12-7-8-11-14-9-15-6-14-6-21-3-21v-130l-172 1-2 1-1 9v783l1 6 1717 1 20 2 19 5 20 8 16 9 14 11 13 12 11 14 9 14 8 16 7 21 4 15v206l-9 29-7 16-8 14-10 13-9 10-9 9-16 11-20 11-17 6-18 4-7 1h-1425l-22-4-19-7-22-12-12-9-8-7v-2l-4-2-7-8-11-14-8-14-7-15-6-21-3-21v-180h-167l-23-2-26-6-16-7-22-13-11-9-12-11-10-11-10-15-9-19-6-19-4-16v-827l7-26 8-20 9-15 10-13 11-12 10-10 14-10 19-10 24-8 15-3 10-1h371l1350-1v-172l-2-3h-1399l-1 106-13 1h-127l-1-2v-99l1-17 3-16 5-17 5-12 9-17 10-13 9-11 10-10 10-8 16-10 16-7 15-5 19-4zm0 1400v174l3 3 6 1h1388l5-3 1-2v-167l-2-5-2-1z" fill="#4B1271"/>
</svg>
